<svg width="33" height="33" viewBox="0 0 33 33" fill="none" xmlns="http://www.w3.org/2000/svg">
<path d="M12 0V32.8369H0V0H12Z" fill="white"/>
<path d="M20.7266 0C22.0719 2.64184e-05 23.4173 0.131072 24.7627 0.393555C26.1083 0.623299 27.3232 1.05024 28.4062 1.67383C29.4893 2.2646 30.3752 3.08551 31.0645 4.13574C31.7536 5.18597 32.0986 6.51494 32.0986 8.12305C32.0986 10.3219 31.4915 12.0778 30.2773 13.3906C29.063 14.7034 27.4051 15.5893 25.3047 16.0488C26.3549 16.2457 27.3229 16.5417 28.209 16.9355C29.128 17.3294 29.9159 17.8383 30.5723 18.4619C31.2286 19.0855 31.7376 19.8405 32.0986 20.7266C32.4924 21.5798 32.6895 22.581 32.6895 23.7295C32.6894 25.797 32.2955 27.438 31.5078 28.6523C30.7201 29.8339 29.6862 30.7368 28.4062 31.3604C27.1591 31.9839 25.7312 32.3939 24.123 32.5908C22.5149 32.7549 20.89 32.8369 19.249 32.8369H13V26.0928H15.3105C15.8357 26.0928 16.3776 26.0428 16.9355 25.9443C17.5262 25.8131 18.0513 25.616 18.5107 25.3535C18.9702 25.091 19.3482 24.7469 19.6436 24.3203C19.9717 23.8937 20.1357 23.3517 20.1357 22.6953C20.1357 21.9734 19.9876 21.3993 19.6924 20.9727C19.4298 20.546 19.0689 20.217 18.6094 19.9873C18.1827 19.7248 17.6898 19.5608 17.1318 19.4951C16.574 19.3967 15.9998 19.3477 15.4092 19.3477H13V13.1943H15.1143C15.6392 13.1943 16.1645 13.1443 16.6895 13.0459C17.2473 12.9474 17.7394 12.7834 18.166 12.5537C18.6255 12.324 19.0034 12.012 19.2988 11.6182C19.594 11.1916 19.7412 10.6502 19.7412 9.99414C19.7412 9.37071 19.6101 8.84555 19.3477 8.41895C19.1179 7.9923 18.7899 7.66334 18.3633 7.43359C17.9694 7.17103 17.5095 6.99104 16.9844 6.89258C16.4593 6.79414 15.9342 6.74414 15.4092 6.74414H13V0H20.7266Z" fill="white"/>
</svg>
