<svg width="29" height="34" viewBox="0 0 29 34" fill="none" xmlns="http://www.w3.org/2000/svg">
<path d="M28.8 32.5908C25.7805 33.4441 22.7282 33.8708 19.6431 33.8708C16.919 33.8708 14.359 33.5426 11.9631 32.8862C9.56718 32.2297 7.48308 31.2123 5.71077 29.8338C3.93846 28.4554 2.54359 26.6995 1.52615 24.5662C0.508718 22.4328 0 19.8892 0 16.9354C0 14.1785 0.541538 11.7497 1.62462 9.64923C2.74051 7.5159 4.20103 5.74359 6.00615 4.33231C7.8441 2.88821 9.94462 1.80513 12.3077 1.08308C14.6708 0.361026 17.1159 0 19.6431 0C21.1856 0 22.7118 0.114872 24.2215 0.344617C25.7313 0.541539 27.2246 0.771283 28.7015 1.03385L28.4062 9.64923C27.4215 9.32103 26.4041 9.04205 25.3538 8.81231C24.3364 8.58257 23.3026 8.4677 22.2523 8.4677C20.9723 8.4677 19.7744 8.66462 18.6585 9.05846C17.5426 9.41949 16.5744 9.96103 15.7538 10.6831C14.9333 11.4051 14.2933 12.2913 13.8338 13.3415C13.3744 14.3918 13.1446 15.5897 13.1446 16.9354C13.1446 19.7251 13.9487 21.8421 15.5569 23.2862C17.1651 24.6974 19.2985 25.4031 21.9569 25.4031C23.1056 25.4031 24.2215 25.2882 25.3046 25.0585C26.3877 24.8287 27.4544 24.5169 28.5046 24.1231L28.8 32.5908Z" fill="white"/>
</svg>
