<svg width="35" height="33" viewBox="0 0 35 33" fill="none" xmlns="http://www.w3.org/2000/svg">
<path d="M12.3418 32.8369H0V0H12.3418V32.8369Z" fill="white"/>
<path d="M17.7725 0C23.155 0 27.2905 1.3619 30.1787 4.08594C33.0669 6.77722 34.5107 10.8967 34.5107 16.4434C34.5107 19.0361 34.1168 21.35 33.3291 23.3848C32.5743 25.4194 31.4752 27.1425 30.0312 28.5537C28.5872 29.9321 26.8312 30.999 24.7637 31.7539C22.696 32.476 20.3653 32.8369 17.7725 32.8369H13.3418V24.9111H15.2129C16.3942 24.9111 17.3784 24.6641 18.166 24.1719C18.9537 23.6796 19.5776 23.0396 20.0371 22.252C20.5293 21.4644 20.8574 20.5621 21.0215 19.5449C21.2184 18.5276 21.3174 17.4935 21.3174 16.4434C21.3174 15.4261 21.2353 14.4249 21.0713 13.4404C20.9072 12.423 20.5952 11.5031 20.1357 10.6826C19.7091 9.86234 19.1019 9.20609 18.3145 8.71387C17.5268 8.18874 16.5249 7.92578 15.3105 7.92578H13.3418V0H17.7725Z" fill="white"/>
</svg>
